<svg xmlns="http://www.w3.org/2000/svg" viewBox="0 0 24 24" width="24" height="24" color="#444444" fill="none">
    <defs />
    <path fill="currentColor" d="M13,22.75 L2,22.75 C1.586,22.75 1.25,22.414 1.25,22 C1.25,21.586 1.586,21.25 2,21.25 L2.75,21.25 L2.75,16.596 C2.382,16.439 2.072,16.175 1.839,15.864 C1.462,15.36 1.25,14.699 1.25,14 C1.25,13.301 1.462,12.64 1.839,12.136 C2.217,11.632 2.797,11.25 3.5,11.25 C4.203,11.25 4.783,11.632 5.161,12.136 C5.538,12.64 5.75,13.301 5.75,14 C5.75,14.699 5.538,15.36 5.161,15.864 C4.928,16.175 4.618,16.439 4.25,16.596 L4.25,21.25 L7.25,21.25 L7.25,5 C7.25,4.363 7.282,3.801 7.387,3.323 C7.494,2.837 7.686,2.392 8.039,2.039 C8.392,1.686 8.837,1.494 9.323,1.387 C9.801,1.282 10.363,1.25 11,1.25 L15,1.25 C15.637,1.25 16.199,1.282 16.677,1.387 C17.163,1.494 17.608,1.686 17.961,2.039 C18.314,2.392 18.506,2.837 18.613,3.323 C18.718,3.801 18.75,4.363 18.75,5 L18.75,11.587 C18.806,11.616 18.862,11.647 18.917,11.679 C19.336,11.92 19.808,12.271 20.369,12.687 L20.403,12.713 L20.927,13.103 C21.286,13.369 21.593,13.597 21.832,13.809 C22.087,14.035 22.305,14.276 22.465,14.587 C22.752,15.149 22.751,15.785 22.75,16.562 L22.75,16.703 L22.75,18.232 C22.75,19.087 22.75,19.807 22.67,20.379 C22.584,20.989 22.394,21.542 21.933,21.983 C21.489,22.406 20.944,22.584 20.344,22.667 C20.241,22.72 20.124,22.75 20,22.75 L13,22.75 Z M12.25,21.25 L12.25,16.703 L12.25,16.562 C12.249,15.785 12.248,15.149 12.536,14.587 C12.695,14.276 12.913,14.035 13.168,13.809 C13.408,13.597 13.714,13.369 14.073,13.103 L14.097,13.085 L14.597,12.713 L14.632,12.687 C15.192,12.271 15.664,11.92 16.083,11.679 C16.456,11.464 16.832,11.309 17.25,11.263 L17.25,5 C17.25,4.396 17.218,3.963 17.148,3.645 C17.08,3.336 16.987,3.187 16.9,3.1 C16.813,3.013 16.664,2.92 16.355,2.852 C16.038,2.783 15.604,2.75 15,2.75 L11,2.75 C10.396,2.75 9.963,2.783 9.645,2.852 C9.336,2.92 9.187,3.013 9.1,3.1 C9.013,3.187 8.92,3.336 8.852,3.645 C8.783,3.963 8.75,4.396 8.75,5 L8.75,21.25 Z M16.832,12.979 C16.498,13.171 16.096,13.468 15.492,13.917 L14.992,14.288 C14.602,14.578 14.349,14.767 14.163,14.932 C13.988,15.087 13.915,15.185 13.871,15.271 C13.769,15.47 13.75,15.71 13.75,16.703 L13.75,21.25 L16.75,21.25 L16.75,20 C16.75,19.586 17.086,19.25 17.5,19.25 C17.914,19.25 18.25,19.586 18.25,20 L18.25,21.25 C19.078,21.249 19.657,21.243 20.099,21.186 C20.567,21.126 20.767,21.021 20.896,20.898 C21.021,20.779 21.124,20.601 21.184,20.17 C21.249,19.715 21.25,19.101 21.25,18.178 L21.25,16.703 C21.25,15.71 21.231,15.47 21.129,15.271 C21.085,15.185 21.012,15.087 20.837,14.932 C20.652,14.767 20.398,14.578 20.009,14.288 L19.509,13.917 C18.905,13.468 18.503,13.171 18.169,12.979 C17.853,12.797 17.665,12.75 17.5,12.75 C17.336,12.75 17.148,12.797 16.832,12.979 Z M11.25,9 C11.25,8.586 11.586,8.25 12,8.25 L14,8.25 C14.414,8.25 14.75,8.586 14.75,9 C14.75,9.414 14.414,9.75 14,9.75 L12,9.75 C11.586,9.75 11.25,9.414 11.25,9 Z M11.25,6 C11.25,5.586 11.586,5.25 12,5.25 L14,5.25 C14.414,5.25 14.75,5.586 14.75,6 C14.75,6.414 14.414,6.75 14,6.75 L12,6.75 C11.586,6.75 11.25,6.414 11.25,6 Z M2.75,14 C2.75,14.406 2.874,14.744 3.039,14.964 C3.204,15.184 3.375,15.25 3.5,15.25 C3.625,15.25 3.796,15.184 3.961,14.964 C4.126,14.744 4.25,14.406 4.25,14 C4.25,13.594 4.126,13.256 3.961,13.036 C3.796,12.816 3.625,12.75 3.5,12.75 C3.375,12.75 3.204,12.816 3.039,13.036 C2.874,13.256 2.75,13.594 2.75,14 Z" />
</svg>